<svg width="20" height="20" viewBox="0 0 20 20" fill="none" xmlns="http://www.w3.org/2000/svg">
<g clip-path="url(#clip0_266_259)">
<path d="M6.66683 18.3334C7.12707 18.3334 7.50016 17.9603 7.50016 17.5001C7.50016 17.0398 7.12707 16.6667 6.66683 16.6667C6.20659 16.6667 5.8335 17.0398 5.8335 17.5001C5.8335 17.9603 6.20659 18.3334 6.66683 18.3334Z" stroke="black" stroke-width="2" stroke-linecap="round" stroke-linejoin="round"/>
<path d="M15.8333 18.3334C16.2936 18.3334 16.6667 17.9603 16.6667 17.5001C16.6667 17.0398 16.2936 16.6667 15.8333 16.6667C15.3731 16.6667 15 17.0398 15 17.5001C15 17.9603 15.3731 18.3334 15.8333 18.3334Z" stroke="black" stroke-width="2" stroke-linecap="round" stroke-linejoin="round"/>
<path d="M1.7085 1.70825H3.37516L5.59183 12.0583C5.67314 12.4373 5.88405 12.7761 6.18826 13.0165C6.49246 13.2568 6.87092 13.3835 7.2585 13.3749H15.4085C15.7878 13.3743 16.1556 13.2443 16.451 13.0064C16.7465 12.7686 16.9519 12.437 17.0335 12.0666L18.4085 5.87492H4.26683" stroke="black" stroke-width="2" stroke-linecap="round" stroke-linejoin="round"/>
</g>
<defs>
<clipPath id="clip0_266_259">
<rect width="20" height="20" fill="white"/>
</clipPath>
</defs>
</svg>
