<svg width="36" height="36" viewBox="0 0 36 36" fill="none" xmlns="http://www.w3.org/2000/svg">
<path fill-rule="evenodd" clip-rule="evenodd" d="M32.2972 17.3786L31.125 16.4408V31.8751H33C33.6213 31.8751 34.125 32.3788 34.125 33.0001C34.125 33.6215 33.6213 34.1251 33 34.1251H3.00004C2.37871 34.1251 1.87504 33.6215 1.87504 33.0001C1.87504 32.3788 2.37871 31.8751 3.00004 31.8751H4.87504V16.4408L3.70282 17.3786C3.21765 17.7668 2.50969 17.6881 2.12157 17.203C1.73343 16.7177 1.81209 16.0097 2.29726 15.6217L14.4861 5.87056C16.5405 4.22707 19.4596 4.22707 21.5139 5.87056L33.7027 15.6217C34.188 16.0097 34.2666 16.7177 33.8785 17.203C33.4903 17.6881 32.7825 17.7668 32.2972 17.3786ZM18 10.1251C15.7218 10.1251 13.875 11.972 13.875 14.2501C13.875 16.5283 15.7218 18.3751 18 18.3751C20.2782 18.3751 22.125 16.5283 22.125 14.2501C22.125 11.972 20.2782 10.1251 18 10.1251ZM20.6188 19.9675C19.9306 19.8751 19.0714 19.8751 18.0741 19.8751H17.926C16.9287 19.8751 16.0693 19.8751 15.3813 19.9675C14.6438 20.0666 13.9369 20.2903 13.3636 20.8637C12.7902 21.437 12.5666 22.144 12.4674 22.8814C12.3749 23.5694 12.375 24.4288 12.375 25.4261V31.8751H14.625H21.375H23.625V25.4261V25.2407C23.6247 24.322 23.6193 23.5265 23.5326 22.8814C23.4334 22.144 23.2099 21.437 22.6365 20.8637C22.0632 20.2903 21.3562 20.0666 20.6188 19.9675Z" fill="#58CA00"/>
<g opacity="0.5">
<path fill-rule="evenodd" clip-rule="evenodd" d="M16.125 14.25C16.125 13.2145 16.9644 12.375 18 12.375C19.0356 12.375 19.875 13.2145 19.875 14.25C19.875 15.2856 19.0356 16.125 18 16.125C16.9644 16.125 16.125 15.2856 16.125 14.25Z" fill="#58CA00"/>
<path fill-rule="evenodd" clip-rule="evenodd" d="M16.125 14.25C16.125 13.2145 16.9644 12.375 18 12.375C19.0356 12.375 19.875 13.2145 19.875 14.25C19.875 15.2856 19.0356 16.125 18 16.125C16.9644 16.125 16.125 15.2856 16.125 14.25Z" fill="#58CA00"/>
</g>
<path opacity="0.5" d="M18.0741 19.875C19.0713 19.875 19.9307 19.8748 20.6187 19.9674C21.3563 20.0665 22.0631 20.2902 22.6365 20.8635C23.2098 21.437 23.4335 22.1437 23.5326 22.8813C23.6193 23.5263 23.6247 24.3219 23.625 25.2405V31.875H12.375V25.4259C12.375 24.4287 12.3749 23.5693 12.4674 22.8813C12.5666 22.1437 12.7902 21.437 13.3635 20.8635C13.9369 20.2902 14.6438 20.0665 15.3813 19.9674C16.0694 19.8748 16.9287 19.875 17.9259 19.875H18.0741Z" fill="#58CA00"/>
<path opacity="0.5" d="M24 4.5H27.75C28.1642 4.5 28.5 4.83579 28.5 5.25V11.4593L23.25 7.25932V5.25C23.25 4.83579 23.5859 4.5 24 4.5Z" fill="#58CA00"/>
</svg>
